<svg width="63" height="56" viewBox="0 0 63 56" fill="none" xmlns="http://www.w3.org/2000/svg">
<path d="M32.957 37H24.0732V21.2949H32.957V23.4648H26.6406V27.7402H32.5596V29.8887H26.6406V34.8193H32.957V37ZM40.1006 37.2148C38.6182 37.2148 37.4616 36.6777 36.6309 35.6035C35.8001 34.5293 35.3848 33.0218 35.3848 31.0811C35.3848 29.1331 35.8037 27.6185 36.6416 26.5371C37.4867 25.4486 38.654 24.9043 40.1436 24.9043C41.7048 24.9043 42.8936 25.4808 43.71 26.6338H43.8389C43.7171 25.7816 43.6562 25.1084 43.6562 24.6143V20.2852H46.1914V37H44.2148L43.7744 35.4424H43.6562C42.847 36.624 41.6618 37.2148 40.1006 37.2148ZM40.7773 35.1738C41.8158 35.1738 42.5713 34.8838 43.0439 34.3037C43.5166 33.7165 43.7601 32.7676 43.7744 31.457V31.1025C43.7744 29.6058 43.5309 28.5423 43.0439 27.9121C42.557 27.2819 41.7943 26.9668 40.7559 26.9668C39.8678 26.9668 39.1839 27.3285 38.7041 28.0518C38.2243 28.7679 37.9844 29.792 37.9844 31.124C37.9844 32.4417 38.2171 33.4479 38.6826 34.1426C39.1481 34.8301 39.8464 35.1738 40.7773 35.1738ZM52.3252 37H49.8008V25.1191H52.3252V37ZM49.6504 21.9717C49.6504 21.5205 49.7721 21.1732 50.0156 20.9297C50.2663 20.6862 50.6208 20.5645 51.0791 20.5645C51.5231 20.5645 51.8669 20.6862 52.1104 20.9297C52.361 21.1732 52.4863 21.5205 52.4863 21.9717C52.4863 22.4014 52.361 22.7415 52.1104 22.9922C51.8669 23.2357 51.5231 23.3574 51.0791 23.3574C50.6208 23.3574 50.2663 23.2357 50.0156 22.9922C49.7721 22.7415 49.6504 22.4014 49.6504 21.9717ZM60.3711 35.1738C60.987 35.1738 61.6029 35.0771 62.2188 34.8838V36.7852C61.9395 36.9069 61.5778 37.0072 61.1338 37.0859C60.6969 37.1719 60.2422 37.2148 59.7695 37.2148C57.3776 37.2148 56.1816 35.9544 56.1816 33.4336V27.0312H54.5596V25.9141L56.2998 24.9902L57.1592 22.4766H58.7168V25.1191H62.1006V27.0312H58.7168V33.3906C58.7168 33.9993 58.8672 34.4505 59.168 34.7441C59.4759 35.0306 59.877 35.1738 60.3711 35.1738Z" fill="#9EA0A5"/>
<g clip-path="url(#clip0_235_63)">
<path d="M0 33.6663V37.0001H3.33379L13.1707 27.1631L9.8369 23.8293L0 33.6663Z" fill="#9B9B9B"/>
<path d="M15.74 23.3359L13.6642 21.26C13.3174 20.9133 12.7529 20.9133 12.4062 21.26L10.7793 22.8869L14.1131 26.2207L15.74 24.5938C16.0867 24.2471 16.0867 23.6826 15.74 23.3359Z" fill="#9B9B9B"/>
</g>
<defs>
<clipPath id="clip0_235_63">
<rect width="16" height="16" fill="white" transform="translate(0 21)"/>
</clipPath>
</defs>
</svg>
