<svg width="24" height="24" viewBox="0 0 24 24" fill="none" xmlns="http://www.w3.org/2000/svg">
<path d="M22.6501 14.39L12.0001 22.13L1.35014 14.39C1.20737 14.285 1.10146 14.1375 1.04758 13.9687C0.993694 13.7998 0.994592 13.6183 1.05014 13.45L2.27014 9.66999L4.71014 2.15999C4.73381 2.0988 4.77148 2.044 4.82014 1.99999C4.89938 1.92761 5.00282 1.88748 5.11014 1.88748C5.21746 1.88748 5.3209 1.92761 5.40014 1.99999C5.45153 2.04966 5.48939 2.11161 5.51014 2.17999L7.95014 9.66999H16.0501L18.4901 2.15999C18.5138 2.0988 18.5515 2.044 18.6001 1.99999C18.6794 1.92761 18.7828 1.88748 18.8901 1.88748C18.9975 1.88748 19.1009 1.92761 19.1801 1.99999C19.2315 2.04966 19.2694 2.11161 19.2901 2.17999L21.7301 9.68999L23.0001 13.45C23.0507 13.6235 23.0439 13.8086 22.9808 13.978C22.9178 14.1473 22.8018 14.2918 22.6501 14.39V14.39Z" stroke="#9EA0A5" stroke-width="2.33333" stroke-linecap="round" stroke-linejoin="round"/>
</svg>
