<svg width="127" height="73" viewBox="0 0 127 73" fill="none" xmlns="http://www.w3.org/2000/svg">
<path fill-rule="evenodd" clip-rule="evenodd" d="M122.713 43.422C122.713 44.4348 123.534 45.2558 124.547 45.2558C125.56 45.2558 126.381 44.4348 126.381 43.422C126.381 42.4092 125.56 41.5881 124.547 41.5881C123.534 41.5881 122.713 42.4092 122.713 43.422ZM121.713 1.83386C121.713 2.84667 122.534 3.66771 123.547 3.66771C124.56 3.66771 125.381 2.84667 125.381 1.83386C125.381 0.821047 124.56 2.70977e-06 123.547 2.6655e-06C122.534 2.62123e-06 121.713 0.821047 121.713 1.83386ZM86.6523 1.83386C86.6523 2.84667 87.4733 3.66771 88.4862 3.66771C89.499 3.66771 90.32 2.84667 90.32 1.83386C90.32 0.821046 89.499 1.17721e-06 88.4862 1.13294e-06C87.4733 1.08867e-06 86.6523 0.821046 86.6523 1.83386ZM17.5307 1.83385C17.5307 2.84666 18.3517 3.6677 19.3645 3.6677C20.3773 3.6677 21.1984 2.84666 21.1984 1.83385C21.1984 0.82104 20.3773 -4.63356e-06 19.3645 -4.67783e-06C18.3517 -4.7221e-06 17.5307 0.82104 17.5307 1.83385ZM54.4253 3.66771C53.4125 3.66771 52.5915 2.84666 52.5915 1.83385C52.5915 0.821041 53.4125 -3.18955e-06 54.4253 -3.14528e-06C55.4382 -3.101e-06 56.2592 0.821042 56.2592 1.83385C56.2592 2.84666 55.4382 3.66771 54.4253 3.66771ZM1.83411 3.6677C0.821297 3.6677 0.000251646 2.84666 0.00025169 1.83385C0.000251734 0.821039 0.821297 -5.48838e-06 1.83411 -5.44411e-06C2.84692 -5.39984e-06 3.66796 0.821039 3.66796 1.83385C3.66796 2.84666 2.84692 3.6677 1.83411 3.6677ZM70.1219 1.83385C70.1219 2.84666 70.943 3.66771 71.9558 3.66771C72.9686 3.66771 73.7896 2.84666 73.7896 1.83385C73.7896 0.821042 72.9686 -2.33473e-06 71.9558 -2.379e-06C70.943 -2.42327e-06 70.1219 0.821042 70.1219 1.83385ZM36.8949 3.66771C35.8821 3.66771 35.0611 2.84666 35.0611 1.83385C35.0611 0.821041 35.8821 -3.95583e-06 36.8949 -3.91155e-06C37.9077 -3.86728e-06 38.7288 0.821041 38.7288 1.83385C38.7288 2.84666 37.9077 3.66771 36.8949 3.66771ZM104.183 1.83386C104.183 2.84667 105.004 3.66771 106.017 3.66771C107.029 3.66771 107.85 2.84667 107.85 1.83386C107.85 0.821047 107.029 1.9435e-06 106.017 1.89922e-06C105.004 1.85495e-06 104.183 0.821046 104.183 1.83386ZM19.3645 45.2558C18.3517 45.2558 17.5307 44.4348 17.5307 43.422C17.5307 42.4092 18.3517 41.5881 19.3645 41.5881C20.3773 41.5881 21.1984 42.4092 21.1984 43.422C21.1984 44.4348 20.3773 45.2558 19.3645 45.2558ZM87.6523 43.422C87.6523 44.4348 88.4734 45.2558 89.4862 45.2558C90.499 45.2558 91.32 44.4348 91.32 43.422C91.32 42.4092 90.499 41.5881 89.4862 41.5881C88.4734 41.5881 87.6523 42.4092 87.6523 43.422ZM54.4253 45.2558C53.4125 45.2558 52.5915 44.4348 52.5915 43.422C52.5915 42.4092 53.4125 41.5881 54.4253 41.5881C55.4382 41.5881 56.2592 42.4092 56.2592 43.422C56.2592 44.4348 55.4382 45.2558 54.4253 45.2558ZM1.8341 45.2558C0.821295 45.2558 0.000249828 44.4348 0.000249872 43.422C0.000249916 42.4092 0.821295 41.5881 1.8341 41.5881C2.84691 41.5881 3.66796 42.4092 3.66796 43.422C3.66796 44.4348 2.84691 45.2558 1.8341 45.2558ZM70.1219 43.422C70.1219 44.4348 70.9429 45.2558 71.9558 45.2558C72.9686 45.2558 73.7896 44.4348 73.7896 43.422C73.7896 42.4092 72.9686 41.5881 71.9558 41.5881C70.9429 41.5881 70.1219 42.4092 70.1219 43.422ZM36.8949 45.2558C35.8821 45.2558 35.0611 44.4348 35.0611 43.422C35.0611 42.4092 35.8821 41.5881 36.8949 41.5881C37.9077 41.5881 38.7288 42.4092 38.7288 43.422C38.7288 44.4348 37.9077 45.2558 36.8949 45.2558ZM105.183 43.422C105.183 44.4348 106.004 45.2558 107.017 45.2558C108.029 45.2558 108.85 44.4348 108.85 43.422C108.85 42.4092 108.029 41.5881 107.017 41.5881C106.004 41.5881 105.183 42.4092 105.183 43.422ZM19.3645 17.5304C18.3517 17.5304 17.5307 16.7094 17.5307 15.6966C17.5307 14.6837 18.3517 13.8627 19.3645 13.8627C20.3773 13.8627 21.1984 14.6837 21.1984 15.6966C21.1984 16.7094 20.3773 17.5304 19.3645 17.5304ZM87.6523 15.6966C87.6523 16.7094 88.4734 17.5304 89.4862 17.5304C90.499 17.5304 91.32 16.7094 91.32 15.6966C91.32 14.6837 90.499 13.8627 89.4862 13.8627C88.4734 13.8627 87.6523 14.6837 87.6523 15.6966ZM54.4253 17.5304C53.4125 17.5304 52.5915 16.7094 52.5915 15.6966C52.5915 14.6837 53.4125 13.8627 54.4253 13.8627C55.4382 13.8627 56.2592 14.6837 56.2592 15.6966C56.2592 16.7094 55.4382 17.5304 54.4253 17.5304ZM121.713 15.6965C121.713 16.7093 122.534 17.5304 123.547 17.5304C124.56 17.5304 125.381 16.7093 125.381 15.6965C125.381 14.6837 124.56 13.8627 123.547 13.8627C122.534 13.8627 121.713 14.6837 121.713 15.6965ZM1.83411 17.5304C0.821296 17.5304 0.00025104 16.7094 0.000251084 15.6966C0.000251128 14.6837 0.821296 13.8627 1.83411 13.8627C2.84692 13.8627 3.66796 14.6837 3.66796 15.6966C3.66796 16.7094 2.84692 17.5304 1.83411 17.5304ZM70.1219 15.6966C70.1219 16.7094 70.943 17.5304 71.9558 17.5304C72.9686 17.5304 73.7896 16.7094 73.7896 15.6966C73.7896 14.6837 72.9686 13.8627 71.9558 13.8627C70.943 13.8627 70.1219 14.6837 70.1219 15.6966ZM36.8949 17.5304C35.8821 17.5304 35.0611 16.7094 35.0611 15.6966C35.0611 14.6837 35.8821 13.8627 36.8949 13.8627C37.9077 13.8627 38.7288 14.6837 38.7288 15.6966C38.7288 16.7094 37.9077 17.5304 36.8949 17.5304ZM104.183 15.6965C104.183 16.7093 105.004 17.5304 106.017 17.5304C107.029 17.5304 107.85 16.7093 107.85 15.6965C107.85 14.6837 107.029 13.8627 106.017 13.8627C105.004 13.8627 104.183 14.6837 104.183 15.6965ZM19.3645 59.1185C18.3517 59.1185 17.5307 58.2975 17.5307 57.2847C17.5307 56.2719 18.3517 55.4508 19.3645 55.4508C20.3773 55.4508 21.1984 56.2719 21.1984 57.2847C21.1984 58.2975 20.3773 59.1185 19.3645 59.1185ZM87.6523 57.2847C87.6523 58.2975 88.4734 59.1185 89.4862 59.1185C90.499 59.1185 91.32 58.2975 91.32 57.2847C91.32 56.2719 90.499 55.4508 89.4862 55.4508C88.4734 55.4508 87.6523 56.2719 87.6523 57.2847ZM54.4253 59.1185C53.4125 59.1185 52.5915 58.2975 52.5915 57.2847C52.5915 56.2719 53.4125 55.4508 54.4253 55.4508C55.4382 55.4508 56.2592 56.2719 56.2592 57.2847C56.2592 58.2975 55.4382 59.1185 54.4253 59.1185ZM122.713 57.2847C122.713 58.2975 123.534 59.1185 124.547 59.1185C125.56 59.1185 126.381 58.2975 126.381 57.2847C126.381 56.2719 125.56 55.4508 124.547 55.4508C123.534 55.4508 122.713 56.2719 122.713 57.2847ZM1.8341 59.1185C0.821294 59.1185 0.000249222 58.2975 0.000249266 57.2847C0.00024931 56.2719 0.821294 55.4508 1.8341 55.4508C2.84691 55.4508 3.66796 56.2719 3.66796 57.2847C3.66796 58.2975 2.84691 59.1185 1.8341 59.1185ZM70.1219 57.2847C70.1219 58.2975 70.9429 59.1185 71.9558 59.1185C72.9686 59.1185 73.7896 58.2975 73.7896 57.2847C73.7896 56.2719 72.9686 55.4508 71.9558 55.4508C70.9429 55.4508 70.1219 56.2719 70.1219 57.2847ZM36.8949 59.1185C35.8821 59.1185 35.0611 58.2975 35.0611 57.2847C35.0611 56.2719 35.8821 55.4508 36.8949 55.4508C37.9077 55.4508 38.7288 56.2719 38.7288 57.2847C38.7288 58.2975 37.9077 59.1185 36.8949 59.1185ZM105.183 57.2847C105.183 58.2975 106.004 59.1185 107.017 59.1185C108.029 59.1185 108.85 58.2975 108.85 57.2847C108.85 56.2719 108.029 55.4508 107.017 55.4508C106.004 55.4508 105.183 56.2719 105.183 57.2847ZM19.3645 31.3931C18.3517 31.3931 17.5307 30.5721 17.5307 29.5593C17.5307 28.5464 18.3517 27.7254 19.3645 27.7254C20.3773 27.7254 21.1984 28.5464 21.1984 29.5593C21.1984 30.5721 20.3773 31.3931 19.3645 31.3931ZM87.6523 29.5593C87.6523 30.5721 88.4734 31.3931 89.4862 31.3931C90.499 31.3931 91.32 30.5721 91.32 29.5593C91.32 28.5465 90.499 27.7254 89.4862 27.7254C88.4734 27.7254 87.6523 28.5465 87.6523 29.5593ZM54.4253 31.3931C53.4125 31.3931 52.5915 30.5721 52.5915 29.5593C52.5915 28.5465 53.4125 27.7254 54.4253 27.7254C55.4382 27.7254 56.2592 28.5465 56.2592 29.5593C56.2592 30.5721 55.4382 31.3931 54.4253 31.3931ZM122.713 29.5593C122.713 30.5721 123.534 31.3931 124.547 31.3931C125.56 31.3931 126.381 30.5721 126.381 29.5593C126.381 28.5465 125.56 27.7254 124.547 27.7254C123.534 27.7254 122.713 28.5465 122.713 29.5593ZM1.83411 31.3931C0.821295 31.3931 0.000250434 30.5721 0.000250478 29.5593C0.000250522 28.5464 0.821295 27.7254 1.83411 27.7254C2.84691 27.7254 3.66796 28.5464 3.66796 29.5593C3.66796 30.5721 2.84691 31.3931 1.83411 31.3931ZM70.1219 29.5593C70.1219 30.5721 70.9429 31.3931 71.9558 31.3931C72.9686 31.3931 73.7896 30.5721 73.7896 29.5593C73.7896 28.5465 72.9686 27.7254 71.9558 27.7254C70.9429 27.7254 70.1219 28.5465 70.1219 29.5593ZM36.8949 31.3931C35.8821 31.3931 35.0611 30.5721 35.0611 29.5593C35.0611 28.5464 35.8821 27.7254 36.8949 27.7254C37.9077 27.7254 38.7288 28.5464 38.7288 29.5593C38.7288 30.5721 37.9077 31.3931 36.8949 31.3931ZM105.183 29.5593C105.183 30.5721 106.004 31.3931 107.017 31.3931C108.029 31.3931 108.85 30.5721 108.85 29.5593C108.85 28.5465 108.029 27.7254 107.017 27.7254C106.004 27.7254 105.183 28.5465 105.183 29.5593ZM19.3645 72.9812C18.3517 72.9812 17.5307 72.1602 17.5307 71.1474C17.5307 70.1346 18.3517 69.3135 19.3645 69.3135C20.3773 69.3135 21.1984 70.1346 21.1984 71.1474C21.1984 72.1602 20.3773 72.9812 19.3645 72.9812ZM87.6523 71.1474C87.6523 72.1602 88.4734 72.9812 89.4862 72.9812C90.499 72.9812 91.32 72.1602 91.32 71.1474C91.32 70.1346 90.499 69.3135 89.4862 69.3135C88.4734 69.3135 87.6523 70.1346 87.6523 71.1474ZM54.4253 72.9812C53.4125 72.9812 52.5915 72.1602 52.5915 71.1474C52.5915 70.1346 53.4125 69.3135 54.4253 69.3135C55.4382 69.3135 56.2592 70.1346 56.2592 71.1474C56.2592 72.1602 55.4382 72.9812 54.4253 72.9812ZM122.713 71.1474C122.713 72.1602 123.534 72.9812 124.547 72.9812C125.56 72.9812 126.381 72.1602 126.381 71.1474C126.381 70.1346 125.56 69.3135 124.547 69.3135C123.534 69.3135 122.713 70.1346 122.713 71.1474ZM1.8341 72.9812C0.821294 72.9812 0.000248616 72.1602 0.00024866 71.1474C0.000248704 70.1346 0.821294 69.3135 1.8341 69.3135C2.84691 69.3135 3.66796 70.1346 3.66796 71.1474C3.66796 72.1602 2.84691 72.9812 1.8341 72.9812ZM70.1219 71.1474C70.1219 72.1602 70.9429 72.9812 71.9558 72.9812C72.9686 72.9812 73.7896 72.1602 73.7896 71.1474C73.7896 70.1346 72.9686 69.3135 71.9558 69.3135C70.9429 69.3135 70.1219 70.1346 70.1219 71.1474ZM36.8949 72.9812C35.8821 72.9812 35.0611 72.1602 35.0611 71.1474C35.0611 70.1346 35.8821 69.3135 36.8949 69.3135C37.9077 69.3135 38.7288 70.1346 38.7288 71.1474C38.7288 72.1602 37.9077 72.9812 36.8949 72.9812ZM105.183 71.1474C105.183 72.1602 106.004 72.9812 107.017 72.9812C108.029 72.9812 108.85 72.1602 108.85 71.1474C108.85 70.1346 108.029 69.3135 107.017 69.3135C106.004 69.3135 105.183 70.1346 105.183 71.1474Z" fill="white"/>
</svg>
