<svg width="139" height="212" viewBox="0 0 139 212" fill="none" xmlns="http://www.w3.org/2000/svg">
<rect y="74.5767" width="118.589" height="118.589" fill="#5E50A1"/>
<path fill-rule="evenodd" clip-rule="evenodd" d="M67.8534 3.66771C68.8662 3.66771 69.6872 2.84666 69.6872 1.83385C69.6872 0.821045 68.8662 0 67.8534 0C66.8406 0 66.0195 0.821045 66.0195 1.83385C66.0195 2.84666 66.8406 3.66771 67.8534 3.66771ZM67.8534 38.7285C68.8662 38.7285 69.6872 37.9075 69.6872 36.8947C69.6872 35.8819 68.8662 35.0608 67.8534 35.0608C66.8406 35.0608 66.0195 35.8819 66.0195 36.8947C66.0195 37.9075 66.8406 38.7285 67.8534 38.7285ZM67.8534 108.85C68.8662 108.85 69.6872 108.029 69.6872 107.016C69.6872 106.004 68.8662 105.182 67.8534 105.182C66.8406 105.182 66.0195 106.004 66.0195 107.016C66.0195 108.029 66.8406 108.85 67.8534 108.85ZM69.6872 71.9555C69.6872 72.9683 68.8662 73.7894 67.8534 73.7894C66.8406 73.7894 66.0195 72.9683 66.0195 71.9555C66.0195 70.9427 66.8406 70.1217 67.8534 70.1217C68.8662 70.1217 69.6872 70.9427 69.6872 71.9555ZM69.6872 124.547C69.6872 125.56 68.8662 126.381 67.8534 126.381C66.8406 126.381 66.0195 125.56 66.0195 124.547C66.0195 123.534 66.8406 122.713 67.8534 122.713C68.8662 122.713 69.6872 123.534 69.6872 124.547ZM67.8534 56.259C68.8662 56.259 69.6872 55.4379 69.6872 54.4251C69.6872 53.4123 68.8662 52.5912 67.8534 52.5912C66.8406 52.5912 66.0195 53.4123 66.0195 54.4251C66.0195 55.4379 66.8406 56.259 67.8534 56.259ZM69.6872 89.4859C69.6872 90.4987 68.8662 91.3198 67.8534 91.3198C66.8406 91.3198 66.0195 90.4987 66.0195 89.4859C66.0195 88.4731 66.8406 87.6521 67.8534 87.6521C68.8662 87.6521 69.6872 88.4731 69.6872 89.4859ZM67.8534 21.1981C68.8662 21.1981 69.6872 20.3771 69.6872 19.3643C69.6872 18.3515 68.8662 17.5304 67.8534 17.5304C66.8406 17.5304 66.0195 18.3515 66.0195 19.3643C66.0195 20.3771 66.8406 21.1981 67.8534 21.1981ZM111.275 107.016C111.275 108.029 110.454 108.85 109.442 108.85C108.429 108.85 107.608 108.029 107.608 107.016C107.608 106.004 108.429 105.182 109.442 105.182C110.454 105.182 111.275 106.004 111.275 107.016ZM109.442 38.7285C110.454 38.7285 111.275 37.9075 111.275 36.8947C111.275 35.8819 110.454 35.0608 109.442 35.0608C108.429 35.0608 107.608 35.8819 107.608 36.8947C107.608 37.9075 108.429 38.7285 109.442 38.7285ZM111.275 71.9555C111.275 72.9683 110.454 73.7894 109.442 73.7894C108.429 73.7894 107.608 72.9683 107.608 71.9555C107.608 70.9427 108.429 70.1217 109.442 70.1217C110.454 70.1217 111.275 70.9427 111.275 71.9555ZM109.442 3.66771C110.454 3.66771 111.275 2.84666 111.275 1.83385C111.275 0.821045 110.454 0 109.442 0C108.429 0 107.608 0.821045 107.608 1.83385C107.608 2.84666 108.429 3.66771 109.442 3.66771ZM111.275 124.547C111.275 125.56 110.454 126.381 109.442 126.381C108.429 126.381 107.608 125.56 107.608 124.547C107.608 123.534 108.429 122.713 109.442 122.713C110.454 122.713 111.275 123.534 111.275 124.547ZM109.442 56.259C110.454 56.259 111.275 55.4379 111.275 54.4251C111.275 53.4123 110.454 52.5912 109.442 52.5912C108.429 52.5912 107.608 53.4123 107.608 54.4251C107.608 55.4379 108.429 56.259 109.442 56.259ZM111.275 89.4859C111.275 90.4987 110.454 91.3198 109.442 91.3198C108.429 91.3198 107.608 90.4987 107.608 89.4859C107.608 88.4731 108.429 87.6521 109.442 87.6521C110.454 87.6521 111.275 88.4731 111.275 89.4859ZM109.442 21.1981C110.454 21.1981 111.275 20.3771 111.275 19.3643C111.275 18.3515 110.454 17.5304 109.442 17.5304C108.429 17.5304 107.608 18.3515 107.608 19.3643C107.608 20.3771 108.429 21.1981 109.442 21.1981ZM83.5499 107.016C83.5499 108.029 82.7289 108.85 81.7161 108.85C80.7033 108.85 79.8822 108.029 79.8822 107.016C79.8822 106.004 80.7033 105.182 81.7161 105.182C82.7289 105.182 83.5499 106.004 83.5499 107.016ZM81.7161 38.7285C82.7289 38.7285 83.5499 37.9075 83.5499 36.8947C83.5499 35.8819 82.7289 35.0608 81.7161 35.0608C80.7033 35.0608 79.8822 35.8819 79.8822 36.8947C79.8822 37.9075 80.7033 38.7285 81.7161 38.7285ZM83.5499 71.9555C83.5499 72.9683 82.7289 73.7894 81.7161 73.7894C80.7033 73.7894 79.8822 72.9683 79.8822 71.9555C79.8822 70.9427 80.7033 70.1217 81.7161 70.1217C82.7289 70.1217 83.5499 70.9427 83.5499 71.9555ZM81.7161 3.66771C82.7289 3.66771 83.5499 2.84666 83.5499 1.83385C83.5499 0.821045 82.7289 0 81.7161 0C80.7033 0 79.8822 0.821045 79.8822 1.83385C79.8822 2.84666 80.7033 3.66771 81.7161 3.66771ZM83.5499 124.547C83.5499 125.56 82.7289 126.381 81.7161 126.381C80.7033 126.381 79.8822 125.56 79.8822 124.547C79.8822 123.534 80.7033 122.713 81.7161 122.713C82.7289 122.713 83.5499 123.534 83.5499 124.547ZM81.7161 56.259C82.7289 56.259 83.5499 55.4379 83.5499 54.4251C83.5499 53.4123 82.7289 52.5912 81.7161 52.5912C80.7033 52.5912 79.8822 53.4123 79.8822 54.4251C79.8822 55.4379 80.7033 56.259 81.7161 56.259ZM83.5499 89.4859C83.5499 90.4987 82.7289 91.3198 81.7161 91.3198C80.7033 91.3198 79.8822 90.4987 79.8822 89.4859C79.8822 88.4731 80.7033 87.6521 81.7161 87.6521C82.7289 87.6521 83.5499 88.4731 83.5499 89.4859ZM81.7161 21.1981C82.7289 21.1981 83.5499 20.3771 83.5499 19.3643C83.5499 18.3515 82.7289 17.5304 81.7161 17.5304C80.7033 17.5304 79.8822 18.3515 79.8822 19.3643C79.8822 20.3771 80.7033 21.1981 81.7161 21.1981ZM125.138 107.016C125.138 108.029 124.317 108.85 123.304 108.85C122.291 108.85 121.47 108.029 121.47 107.016C121.47 106.004 122.291 105.182 123.304 105.182C124.317 105.182 125.138 106.004 125.138 107.016ZM123.304 38.7285C124.317 38.7285 125.138 37.9075 125.138 36.8947C125.138 35.8819 124.317 35.0608 123.304 35.0608C122.291 35.0608 121.47 35.8819 121.47 36.8947C121.47 37.9075 122.291 38.7285 123.304 38.7285ZM125.138 71.9555C125.138 72.9683 124.317 73.7894 123.304 73.7894C122.291 73.7894 121.47 72.9683 121.47 71.9555C121.47 70.9427 122.291 70.1217 123.304 70.1217C124.317 70.1217 125.138 70.9427 125.138 71.9555ZM123.304 3.66771C124.317 3.66771 125.138 2.84666 125.138 1.83385C125.138 0.821045 124.317 0 123.304 0C122.291 0 121.47 0.821045 121.47 1.83385C121.47 2.84666 122.291 3.66771 123.304 3.66771ZM125.138 124.547C125.138 125.56 124.317 126.381 123.304 126.381C122.291 126.381 121.47 125.56 121.47 124.547C121.47 123.534 122.291 122.713 123.304 122.713C124.317 122.713 125.138 123.534 125.138 124.547ZM123.304 56.259C124.317 56.259 125.138 55.4379 125.138 54.4251C125.138 53.4123 124.317 52.5912 123.304 52.5912C122.291 52.5912 121.47 53.4123 121.47 54.4251C121.47 55.4379 122.291 56.259 123.304 56.259ZM125.138 89.4859C125.138 90.4987 124.317 91.3198 123.304 91.3198C122.291 91.3198 121.47 90.4987 121.47 89.4859C121.47 88.4731 122.291 87.6521 123.304 87.6521C124.317 87.6521 125.138 88.4731 125.138 89.4859ZM123.304 21.1981C124.317 21.1981 125.138 20.3771 125.138 19.3643C125.138 18.3515 124.317 17.5304 123.304 17.5304C122.291 17.5304 121.47 18.3515 121.47 19.3643C121.47 20.3771 122.291 21.1981 123.304 21.1981ZM97.4126 107.016C97.4126 108.029 96.5916 108.85 95.5788 108.85C94.566 108.85 93.7449 108.029 93.7449 107.016C93.7449 106.004 94.566 105.182 95.5788 105.182C96.5916 105.182 97.4126 106.004 97.4126 107.016ZM95.5788 38.7285C96.5916 38.7285 97.4126 37.9075 97.4126 36.8947C97.4126 35.8819 96.5916 35.0608 95.5788 35.0608C94.566 35.0608 93.7449 35.8819 93.7449 36.8947C93.7449 37.9075 94.566 38.7285 95.5788 38.7285ZM97.4126 71.9555C97.4126 72.9683 96.5916 73.7894 95.5788 73.7894C94.566 73.7894 93.7449 72.9683 93.7449 71.9555C93.7449 70.9427 94.566 70.1217 95.5788 70.1217C96.5916 70.1217 97.4126 70.9427 97.4126 71.9555ZM95.5788 3.66771C96.5916 3.66771 97.4126 2.84666 97.4126 1.83385C97.4126 0.821045 96.5916 0 95.5788 0C94.566 0 93.7449 0.821045 93.7449 1.83385C93.7449 2.84666 94.566 3.66771 95.5788 3.66771ZM97.4126 124.547C97.4126 125.56 96.5916 126.381 95.5788 126.381C94.566 126.381 93.7449 125.56 93.7449 124.547C93.7449 123.534 94.566 122.713 95.5788 122.713C96.5916 122.713 97.4126 123.534 97.4126 124.547ZM95.5788 56.259C96.5916 56.259 97.4126 55.4379 97.4126 54.4251C97.4126 53.4123 96.5916 52.5912 95.5788 52.5912C94.566 52.5912 93.7449 53.4123 93.7449 54.4251C93.7449 55.4379 94.566 56.259 95.5788 56.259ZM97.4126 89.4859C97.4126 90.4987 96.5916 91.3198 95.5788 91.3198C94.566 91.3198 93.7449 90.4987 93.7449 89.4859C93.7449 88.4731 94.566 87.6521 95.5788 87.6521C96.5916 87.6521 97.4126 88.4731 97.4126 89.4859ZM95.5788 21.1981C96.5916 21.1981 97.4126 20.3771 97.4126 19.3643C97.4126 18.3515 96.5916 17.5304 95.5788 17.5304C94.566 17.5304 93.7449 18.3515 93.7449 19.3643C93.7449 20.3771 94.566 21.1981 95.5788 21.1981ZM139.001 107.016C139.001 108.029 138.18 108.85 137.167 108.85C136.154 108.85 135.333 108.029 135.333 107.016C135.333 106.004 136.154 105.182 137.167 105.182C138.18 105.182 139.001 106.004 139.001 107.016ZM137.167 38.7285C138.18 38.7285 139.001 37.9075 139.001 36.8947C139.001 35.8819 138.18 35.0608 137.167 35.0608C136.154 35.0608 135.333 35.8819 135.333 36.8947C135.333 37.9075 136.154 38.7285 137.167 38.7285ZM139.001 71.9555C139.001 72.9683 138.18 73.7894 137.167 73.7894C136.154 73.7894 135.333 72.9683 135.333 71.9555C135.333 70.9427 136.154 70.1217 137.167 70.1217C138.18 70.1217 139.001 70.9427 139.001 71.9555ZM137.167 3.66771C138.18 3.66771 139.001 2.84666 139.001 1.83385C139.001 0.821045 138.18 0 137.167 0C136.154 0 135.333 0.821045 135.333 1.83385C135.333 2.84666 136.154 3.66771 137.167 3.66771ZM139.001 124.547C139.001 125.56 138.18 126.381 137.167 126.381C136.154 126.381 135.333 125.56 135.333 124.547C135.333 123.534 136.154 122.713 137.167 122.713C138.18 122.713 139.001 123.534 139.001 124.547ZM137.167 56.259C138.18 56.259 139.001 55.4379 139.001 54.4251C139.001 53.4123 138.18 52.5912 137.167 52.5912C136.154 52.5912 135.333 53.4123 135.333 54.4251C135.333 55.4379 136.154 56.259 137.167 56.259ZM139.001 89.4859C139.001 90.4987 138.18 91.3198 137.167 91.3198C136.154 91.3198 135.333 90.4987 135.333 89.4859C135.333 88.4731 136.154 87.6521 137.167 87.6521C138.18 87.6521 139.001 88.4731 139.001 89.4859ZM137.167 21.1981C138.18 21.1981 139.001 20.3771 139.001 19.3643C139.001 18.3515 138.18 17.5304 137.167 17.5304C136.154 17.5304 135.333 18.3515 135.333 19.3643C135.333 20.3771 136.154 21.1981 137.167 21.1981Z" fill="white"/>
<rect x="86" y="166" width="46" height="46" fill="#FBB017"/>
</svg>
